<?xml version="1.0" ?><!DOCTYPE svg  PUBLIC '-//W3C//DTD SVG 1.1//EN'  'http://www.w3.org/Graphics/SVG/1.1/DTD/svg11.dtd'><svg enable-background="new 0 0 128 128" id="Слой_1" version="1.1" viewBox="0 0 128 128" xml:space="preserve" xmlns="http://www.w3.org/2000/svg" xmlns:xlink="http://www.w3.org/1999/xlink"><g><circle cx="64" cy="62.1" fill="#CBE8E1" r="62"/><g><g><path d="M49.9,32.1H14.8c-2,0-3.9,0.4-5.7,1.1C4.6,41.8,2,51.6,2,62.1c0,34.2,27.8,62,62,62c0.3,0,0.6,0,0.9,0     v-77C64.9,38.8,58.1,32.1,49.9,32.1z" fill="#008E9D"/><path d="M49.9,30.8H14.8c-1.7,0-3.2,0.3-4.7,0.7c-0.6,1.1-1.3,2.3-1.8,3.5c2-1.1,4.2-1.7,6.6-1.7h35.1     c7.6,0,13.8,6.2,13.8,13.8v77c0.1,0,0.3,0,0.4,0c0.7,0,1.4,0,2.1-0.1V47.1C66.1,38.1,58.8,30.8,49.9,30.8z" fill="#2D2E2D"/><path d="M56.9,50.9H7.7c-1.6,0-2.9,1.3-2.9,2.9v26.9c7.5,23.9,29,41.5,54.9,43.2V53.8     C59.8,52.2,58.5,50.9,56.9,50.9z" fill="#EEEBA8"/><g opacity="0.15"><path d="M44.3,68.1v23.5c0,1.3,1.1,2.4,2.4,2.4h18.2V47.1c0-1.8-0.3-3.5-0.9-5.1C52.6,45.1,44.3,55.8,44.3,68.1z      " fill="#04080A"/></g><path d="M51.3,100.3h-36c8.1,10.3,19.3,17.9,32.2,21.5l2.2-16.1l1.6-0.1c0.6,0,1.1-0.5,1.1-1.1v-3.2     C52.3,100.8,51.8,100.3,51.3,100.3z" fill="#C35D55"/><path d="M24.4,108.7c-0.3,0-0.6,0.1-0.8,0.3c0.7,0.6,1.4,1.2,2.1,1.7V110C25.7,109.3,25.1,108.7,24.4,108.7z" fill="#2D2E2D"/><path d="M32.3,108.7c-0.7,0-1.2,0.6-1.2,1.2v4.6c0.8,0.5,1.7,1,2.5,1.5V110C33.6,109.3,33,108.7,32.3,108.7z" fill="#2D2E2D"/><path d="M40.2,108.7c-0.7,0-1.2,0.6-1.2,1.2v8.8c0.8,0.4,1.7,0.7,2.5,1V110C41.5,109.3,40.9,108.7,40.2,108.7z" fill="#2D2E2D"/><path d="M49.8,104.3c-0.7-0.1-1.3,0.4-1.4,1.1l-2.2,16.1c0.8,0.2,1.6,0.5,2.4,0.7l2.2-16.4     C51,105,50.5,104.4,49.8,104.3z" fill="#2D2E2D"/><g><g><path d="M53.6,104.4v-3c0-1.3-1.1-2.4-2.4-2.4H14.2c0.6,0.9,1.3,1.7,2,2.5h34.9v2.8H18.6       c0.8,0.9,1.6,1.7,2.5,2.5h30.1C52.5,106.8,53.6,105.7,53.6,104.4z" fill="#2D2E2D"/></g><g><path d="M28.9,89.3c-0.6-0.3-1.4-0.1-1.7,0.6l-6,11.9c-0.3,0.6-0.1,1.4,0.6,1.7c0.2,0.1,0.4,0.1,0.6,0.1       c0.5,0,0.9-0.3,1.1-0.7l6-11.9C29.7,90.4,29.5,89.7,28.9,89.3z" fill="#2D2E2D"/></g><g><path d="M37.4,89.9c-0.3-0.6-1.1-0.9-1.7-0.6c-0.6,0.3-0.9,1.1-0.6,1.7l6,11.9c0.2,0.4,0.7,0.7,1.1,0.7       c0.2,0,0.4,0,0.6-0.1c0.6-0.3,0.9-1.1,0.6-1.7L37.4,89.9z" fill="#2D2E2D"/></g></g><g><g><path d="M5.4,82.3c0.2,0.7,0.5,1.3,0.7,1.9C5.9,83.6,5.6,83,5.4,82.3z" fill="#2D2E2D"/><path d="M58.6,123.8c0.8,0.1,1.7,0.1,2.5,0.2C60.2,123.9,59.4,123.9,58.6,123.8z" fill="#2D2E2D"/><path d="M5.3,82.1c-0.7-2-1.3-4-1.7-6.1l0,0C4.1,78.1,4.7,80.1,5.3,82.1z" fill="#2D2E2D"/></g><path d="M56.9,49.6H7.7c-2.3,0-4.1,1.9-4.1,4.1V76c0.6,2.8,1.5,5.5,2.5,8.2V53.8c0-0.9,0.7-1.6,1.6-1.6h49.2      c0.9,0,1.6,0.7,1.6,1.6v70c0.8,0.1,1.7,0.1,2.5,0.2V53.8C61,51.5,59.2,49.6,56.9,49.6z" fill="#2D2E2D"/></g><g><path d="      M35,127.9" fill="none" stroke="#373B39" stroke-linecap="round" stroke-linejoin="round" stroke-miterlimit="10" stroke-width="2.5"/></g><g><circle cx="23.9" cy="41.5" fill="#2D2E2D" r="1.5"/></g><g><path d="M41.5,40.2H29c-0.7,0-1.2,0.6-1.2,1.2s0.6,1.2,1.2,1.2h12.6c0.7,0,1.2-0.6,1.2-1.2S42.2,40.2,41.5,40.2z      " fill="#2D2E2D"/></g><g><path d="      M35,109.4" fill="none" stroke="#373B39" stroke-linecap="round" stroke-linejoin="round" stroke-miterlimit="10" stroke-width="2.5"/></g></g><g><g><g><path d="M61.3,32.1c-14.6,0.2-26.1,12.5-26.1,27.1v23.5c0,1.3,1.1,2.4,2.4,2.4h23.5C75.7,85,88,73.5,88.2,58.9       C88.4,44,76.3,31.8,61.3,32.1z" fill="#C35D55"/></g></g><g><g><path d="M61.3,32.1c-14.6,0.2-26.1,12.5-26.1,27.1v23.5c0,1.3,1.1,2.4,2.4,2.4h23.5C75.7,85,88,73.5,88.2,58.9       C88.4,44,76.3,31.8,61.3,32.1z" fill="#C35D55"/></g></g><g><g><path d="M57.9,67.1H46.5c0.7-2.5,2.4-4.3,5.5-6.2l1.8-1.1c2.5-1.6,4.6-3.1,4.6-6.5c0-3.5-2.7-5.7-6.9-5.7       c-2.7,0-4.4,0.8-5.7,2c-0.9,0.9-1.5,2.2-1.8,3.4c0,0.1-0.1,0.3-0.1,0.4c0,0.6,0.4,1,1,1.1c0.1,0,0.3,0,0.4,0       c0.6,0,1-0.2,1.2-0.9c0.5-1.9,1.5-3.8,4.8-3.8c2.6,0,4.3,1.3,4.3,3.3c0,2.1-1.2,3.2-3.9,4.9L50,59.4c-2.6,1.7-4.3,3.4-5.2,5.3       c-0.4,0.8-1,2.2-1,3.1c0,1.1,0.6,1.7,1.7,1.7h12.6c0.7,0,1-0.6,1-1.2C58.9,67.6,58.6,67.1,57.9,67.1z" fill="#E7E8E3"/><path d="M57.9,65.9h-9.5c0.8-1.3,2.1-2.6,4.3-3.9l1.8-1.1c2.2-1.4,5.2-3.3,5.2-7.5c0-4.2-3.2-6.9-8.1-6.9       c-2.8,0-4.9,0.8-6.6,2.4c-1,1-1.8,2.4-2.2,4c0,0.2-0.1,0.4-0.1,0.7c0,1.2,0.8,2.1,2.1,2.4c0.2,0,0.4,0.1,0.7,0.1       c1.2,0,2.1-0.7,2.4-1.8c0.5-1.8,1.2-2.8,3.5-2.8c0.7,0,3.1,0.1,3.1,2.1c0,1.4-0.6,2.2-3.3,3.9l-1.9,1.2       c-2.7,1.8-4.6,3.6-5.7,5.7c-0.3,0.5-1.2,2.3-1.2,3.8c0,1.8,1.1,2.9,2.9,2.9h12.6c1.3,0,2.3-1.1,2.3-2.5       C60.2,66.9,59.2,65.9,57.9,65.9z M45.5,53.3C45.5,53.3,45.5,53.3,45.5,53.3c-0.1,0-0.1,0-0.2,0c0,0,0,0-0.1,0c0,0,0,0,0,0       c0.2-1.1,0.8-2.1,1.5-2.8c0.2-0.2,0.4-0.4,0.6-0.5C46.1,51.1,45.7,52.6,45.5,53.3z M55,49.6c1.4,0.7,2.2,2,2.2,3.7       c0,2-0.9,3.2-2.4,4.3c1.4-1.2,2.2-2.4,2.2-4.4C57,51.7,56.3,50.4,55,49.6z M45.3,66.8l-0.3,1.3c0-0.1,0-0.1,0-0.2       c0-0.5,0.4-1.6,0.9-2.5C45.6,65.8,45.4,66.3,45.3,66.8z" fill="#E7E8E3"/></g><g><path d="M78.6,61.9H76V49.2c0-1.1-0.6-1.5-1.5-1.5c-1.2,0-1.6,0.4-2.3,1.4l-8.4,11.5c-0.6,0.8-0.9,1.3-0.9,2.2       c0,1,0.6,1.5,1.5,1.5h9.1v4.4c0,0.8,0.5,1.1,1.2,1.1c0.7,0,1.3-0.3,1.3-1.1v-4.4h2.6c0.7,0,1-0.5,1-1.2       C79.7,62.3,79.4,61.9,78.6,61.9z M73.5,54.8v7.1h-6.4c-0.5,0-1.1,0-1.7,0.1c0.4-0.4,0.8-0.8,1.1-1.2l5.1-7.2       c0.9-1.2,1.5-2.2,2.1-3.3C73.6,51.7,73.5,53.5,73.5,54.8z" fill="#E7E8E3"/><path d="M78.6,60.6h-1.3V49.2c0-1.7-1.1-2.8-2.8-2.8c-1.8,0-2.6,0.9-3.3,1.9l-8.4,11.5c-0.7,0.9-1.1,1.7-1.1,3       c0,1.6,1.1,2.7,2.8,2.7h7.8v3.2c0,1.4,1,2.4,2.5,2.4c1.5,0,2.5-1,2.5-2.4v-3.2h1.3c1.3,0,2.3-1,2.3-2.4       C80.9,61.6,80,60.6,78.6,60.6z M72.3,54.8v5.8h-4.2L72.3,54.8C72.3,54.7,72.3,54.7,72.3,54.8z M74.8,68.4       C74.8,68.4,74.8,68.4,74.8,68.4l0-5.3v-8.3c0-0.3,0-0.6,0-1L74.8,68.4z M74.8,50.2l-1.6-0.5l0,0c0.6-0.8,0.7-0.8,1.3-0.8       c0.2,0,0.2,0,0.3,0c0,0,0,0.1,0,0.3V50.2z" fill="#E7E8E3"/></g></g><g><g><path d="M61.7,30.8l-0.4,0C46.3,31,34,43.7,34,59.1v23.5c0,2,1.6,3.6,3.6,3.6h23.5C76.5,86.2,89.2,74,89.5,59       c0.1-7.5-2.7-14.6-8-19.9C76.2,33.7,69.2,30.8,61.7,30.8z M61.1,83.7H37.6c-0.6,0-1.1-0.5-1.1-1.1V59.1       c0-14,11.1-25.6,24.8-25.8l0.4,0c6.8,0,13.2,2.7,18,7.5c4.8,4.9,7.4,11.3,7.2,18.1C86.7,72.6,75.2,83.7,61.1,83.7z" fill="#2D2E2D"/></g></g></g></g></g></svg>